{"title":"WWE Superstars 3/27/2014 Ep. 259 (2400K/540p) H.264-WWENetwork -","uid":9841785,"size":860851028,"categoryP":"video","categoryS":"tv_shows","magnet":"?xt=urn:btih:0ae68940a3ec7637eee9e3e1378bbf8d1714d4ea&amp;dn=WWE+Superstars+3%2F27%2F2014+Ep.+259+%282400K%2F540p%29+H.264-WWENetwork+-&amp;tr=udp%3A%2F%2Ftracker.openbittorrent.com%3A80&amp;tr=udp%3A%2F%2Fopen.demonii.com%3A1337&amp;tr=udp%3A%2F%2Ftracker.coppersurfer.tk%3A6969&amp;tr=udp%3A%2F%2Fexodus.desync.com%3A6969","seeders":1,"leechers":0,"uploader":"CenaCme","files":-1,"time":1395996320,"description":"In a rematch from last week, R-Truth and Xavier Woods battle 3MB in tag team action. Emma takes on Summer Rae in Divas action. Relive Brock Lesnar face to face with The Undertaker.\n\nGeneral\nComplete name                            : 2014.03.27-WWE.Superstars.Episode.259.HDWebDL.2400K.540p.AAC.H264-WWENetwork.mp4\nFormat                                  : MPEG-4\nFormat profile                          : Base Media\nCodec ID                                : isom\nFile size                                : 821 MiB\nDuration                                : 50mn 54s\nOverall bit rate mode                    : Variable\nOverall bit rate                        : 2 255 Kbps\nWriting application                      : Lavf54.59.106\n\nVideo\nID                                      : 1\nFormat                                  : AVC\nFormat/Info                              : Advanced Video Codec\nFormat profile                          : &lt;a class=&quot;__cf_email__&quot; href=&quot;/cdn-cgi/l/email-protection&quot; data-cfemail=&quot;6e230f07002e225d405f&quot;&gt;[email&amp;#160;protected]&lt;/a&gt;&lt;script cf-hash='f9e31' type=&quot;text/javascript&quot;&gt;\n/* &lt;![CDATA[ */!function(){try{var t=&quot;currentScript&quot;in document?document.currentScript:function(){for(var t=document.getElementsByTagName(&quot;script&quot;),e=t.length;e--;)if(t[e].getAttribute(&quot;cf-hash&quot;))return t[e]}();if(t&amp;&amp;t.previousSibling){var e,r,n,i,c=t.previousSibling,a=c.getAttribute(&quot;data-cfemail&quot;);if(a){for(e=&quot;&quot;,r=parseInt(a.substr(0,2),16),n=2;a.length-n;n+=2)i=parseInt(a.substr(n,2),16)^r,e+=String.fromCharCode(i);e=document.createTextNode(e),c.parentNode.replaceChild(e,c)}}}catch(u){}}();/* ]]&gt; */&lt;/script&gt;\nFormat settings, CABAC                  : Yes\nFormat settings, ReFrames                : 3 frames\nCodec ID                                : avc1\nCodec ID/Info                            : Advanced Video Coding\nDuration                                : 50mn 54s\nBit rate mode                            : Variable\nBit rate                                : 2 153 Kbps\nMaximum bit rate                        : 2 875 Kbps\nWidth                                    : 960 pixels\nHeight                                  : 540 pixels\nDisplay aspect ratio                    : 16:9\nFrame rate mode                          : Constant\nFrame rate                              : 29.970 fps\nColor space                              : YUV\nChroma subsampling                      : 4:2:0\nBit depth                                : 8 bits\nScan type                                : Progressive\nBits/(Pixel*Frame)                      : 0.139\nStream size                              : 784 MiB (95%)\n\nAudio\nID                                      : 2\nFormat                                  : AAC\nFormat/Info                              : Advanced Audio Codec\nFormat profile                          : LC\nCodec ID                                : 40\nDuration                                : 50mn 54s\nBit rate mode                            : Constant\nBit rate                                : 93.5 Kbps\nChannel(s)                              : 2 channels\nChannel positions                        : Front: L R\nSampling rate                            : 48.0 KHz\nCompression mode                        : Lossy\nStream size                              : 34.0 MiB (4%)\n\nText\nID                                      : 1-CC1\nFormat                                  : EIA-608\nMuxing mode                              : SCTE 128 / DTVCC Transport\nMuxing mode, more info                  : Muxed in Video #1\nDuration                                : 50mn 54s\nBit rate mode                            : Constant\nStream size                              : 0.00 Byte (0%)\nEncoded stream size                      : 0.00 Byte (0%) \n\n\n\n","torrent":{"xt":"urn:btih:0ae68940a3ec7637eee9e3e1378bbf8d1714d4ea","amp;dn":"WWE+Superstars+3%2F27%2F2014+Ep.+259+%282400K%2F540p%29+H.264-WWENetwork+-","amp;tr":["udp%3A%2F%2Ftracker.openbittorrent.com%3A80","udp%3A%2F%2Fopen.demonii.com%3A1337","udp%3A%2F%2Ftracker.coppersurfer.tk%3A6969","udp%3A%2F%2Fexodus.desync.com%3A6969"],"infoHash":"0ae68940a3ec7637eee9e3e1378bbf8d1714d4ea","infoHashBuffer":{"type":"Buffer","data":[10,230,137,64,163,236,118,55,238,233,227,225,55,139,191,141,23,20,212,234]},"announce":[],"urlList":[]}}